<?xml version="1.0" ?><!DOCTYPE svg  PUBLIC '-//W3C//DTD SVG 1.1//EN'  'http://www.w3.org/Graphics/SVG/1.1/DTD/svg11.dtd'><svg enable-background="new 0 0 512 512" height="512px" id="Layer_1" version="1.1" viewBox="0 0 512 512" width="512px" xml:space="preserve" xmlns="http://www.w3.org/2000/svg" xmlns:xlink="http://www.w3.org/1999/xlink"><g><polyline fill="#5B4386" points="0,512 512,512 512,0 0,0 0,512  "/><path d="M109.399,141.799h7.182c2.425,0,4.135-0.39,5.129-1.171c0.993-0.781,1.49-1.835,1.49-3.159   c0-1.225-0.492-2.209-1.478-2.953c-0.984-0.743-2.707-1.115-5.169-1.115h-7.154V141.799 M109.399,125h6.123   c2.2,0,3.729-0.314,4.588-0.947c0.86-0.631,1.289-1.54,1.289-2.728c0-1.106-0.429-1.972-1.289-2.592   c-0.858-0.623-2.356-0.935-4.495-0.935h-6.216V125z M96.2,108.799h25.302c4.22,0,7.458,0.998,9.714,2.992   c2.255,1.993,3.384,4.462,3.384,7.407c0,2.467-0.803,4.583-2.41,6.346c-1.069,1.183-2.635,2.113-4.696,2.793   c3.057,0.771,5.304,2.091,6.744,3.963c1.441,1.872,2.161,4.222,2.161,7.054c0,2.307-0.521,4.377-1.568,6.215   c-1.048,1.838-2.485,3.294-4.309,4.368c-1.125,0.67-2.825,1.155-5.101,1.455c-3.024,0.405-5.031,0.608-6.019,0.608H96.2V108.799z" fill="#FFFFFF"/><path d="M153.2,136.381c0,2.868,0.542,4.988,1.626,6.361c1.084,1.372,2.448,2.057,4.092,2.057   c1.656,0,3.018-0.676,4.083-2.028c1.065-1.354,1.599-3.523,1.599-6.511c0-2.781-0.538-4.854-1.613-6.216   c-1.075-1.363-2.403-2.044-3.985-2.044c-1.681,0-3.067,0.689-4.163,2.073C153.747,131.452,153.2,133.556,153.2,136.381    M141.2,136.484c0-4.724,1.585-8.619,4.757-11.686c3.172-3.065,7.459-4.598,12.858-4.598c6.169,0,10.832,1.799,13.988,5.398   c2.53,2.9,3.798,6.474,3.798,10.716c0,4.764-1.572,8.667-4.716,11.713c-3.144,3.048-7.491,4.571-13.041,4.571   c-4.956,0-8.962-1.265-12.018-3.798C143.075,145.672,141.2,141.565,141.2,136.484z" fill="#FFFFFF"/><path d="M193.399,136.381c0,2.868,0.543,4.988,1.627,6.361c1.084,1.372,2.448,2.057,4.092,2.057   c1.658,0,3.017-0.676,4.083-2.028c1.067-1.354,1.598-3.523,1.598-6.511c0-2.781-0.537-4.854-1.612-6.216   c-1.076-1.363-2.404-2.044-3.985-2.044c-1.68,0-3.068,0.689-4.162,2.073C193.947,131.452,193.399,133.556,193.399,136.381    M181.399,136.484c0-4.724,1.588-8.619,4.759-11.686c3.172-3.065,7.457-4.598,12.857-4.598c6.169,0,10.83,1.799,13.986,5.398   c2.532,2.9,3.797,6.474,3.797,10.716c0,4.764-1.572,8.667-4.716,11.713c-3.143,3.048-7.491,4.571-13.04,4.571   c-4.957,0-8.963-1.265-12.019-3.798C183.276,145.672,181.399,141.565,181.399,136.484z" fill="#FFFFFF"/><path d="M237.201,108.799v12h6.599v9h-6.599v11.29c0,1.355,0.131,2.251,0.394,2.69   c0.399,0.681,1.102,1.02,2.109,1.02c0.906,0,2.172-0.258,3.797-0.777l0.899,7.688c-2.988,0.592-5.778,0.89-8.371,0.89   c-3.008,0-5.224-0.374-6.647-1.126c-1.426-0.748-2.479-1.891-3.159-3.426c-0.683-1.533-1.022-4.014-1.022-7.439v-10.81H221v-9h4.2   v-5.793L237.201,108.799" fill="#FFFFFF"/><path d="M247.399,143.6L259.4,142.4c0.425,1.287,1.021,2.208,1.79,2.765c0.769,0.556,1.792,0.835,3.064,0.835   c1.401,0,2.485-0.335,3.255-1.002c0.594-0.495,0.891-1.109,0.891-1.85c0-0.836-0.244-1.483-0.732-1.939   c-0.35-0.325-1.913-0.725-4.686-1.199c-4.15-0.708-7.034-1.366-8.645-1.983c-1.613-0.615-2.973-1.654-4.08-3.118   c-1.104-1.462-1.657-3.127-1.657-4.997c0-2.049,0.593-3.813,1.781-5.294c1.186-1.482,2.822-2.589,4.902-3.32   s4.875-1.096,8.381-1.096c3.699,0,6.432,0.284,8.194,0.855c1.762,0.574,3.232,1.462,4.406,2.663c1.175,1.204,2.154,2.83,2.936,4.88   l-12.001,1.199c-0.264-0.955-0.7-1.655-1.313-2.099c-0.839-0.601-1.849-0.901-3.028-0.901c-1.206,0-2.085,0.235-2.635,0.699   c-0.551,0.466-0.824,1.033-0.824,1.703c0,0.735,0.372,1.296,1.115,1.678c0.736,0.381,2.415,0.724,5.034,1.029   c3.977,0.438,6.929,1.052,8.864,1.839c1.935,0.786,3.415,1.914,4.442,3.379c1.029,1.465,1.544,3.075,1.544,4.824   c0,1.768-0.54,3.49-1.623,5.166c-1.082,1.675-2.785,3.007-5.113,3.999c-2.328,0.989-5.498,1.484-9.511,1.484   c-5.677,0-9.716-0.78-12.122-2.345C249.625,148.692,248.081,146.474,247.399,143.6" fill="#FFFFFF"/><path d="M300.201,108.799v12h6.598v9h-6.598v11.29c0,1.355,0.131,2.251,0.393,2.69c0.4,0.681,1.101,1.02,2.109,1.02   c0.906,0,2.172-0.258,3.797-0.777l0.9,7.688c-2.989,0.592-5.779,0.89-8.372,0.89c-3.007,0-5.224-0.374-6.647-1.126   c-1.425-0.748-2.479-1.891-3.157-3.426c-0.685-1.533-1.022-4.014-1.022-7.439v-10.81H284v-9h4.201v-5.793L300.201,108.799" fill="#FFFFFF"/><path d="M312.201,120.799h11.174v5.363c1.081-2.269,2.197-3.828,3.348-4.684c1.15-0.853,2.572-1.277,4.266-1.277   c1.768,0,3.706,0.527,5.811,1.583l-3.72,8.879c-1.419-0.574-2.542-0.864-3.367-0.864c-1.568,0-2.788,0.636-3.655,1.904   c-1.238,1.787-1.855,5.131-1.855,10.031V152h-12V120.799" fill="#FFFFFF"/><path d="M361.1,137.6c-1.563,0.557-3.186,1.047-4.874,1.474c-2.307,0.612-3.765,1.215-4.379,1.809   c-0.631,0.61-0.946,1.309-0.946,2.09c0,0.889,0.312,1.613,0.934,2.18c0.621,0.565,1.535,0.849,2.742,0.849   c1.268,0,2.445-0.308,3.529-0.919c1.085-0.612,1.855-1.36,2.312-2.241c0.456-0.88,0.683-2.025,0.683-3.431V137.6 M352.1,131.6   l-12-1.199c0.427-2.118,1.038-3.789,1.837-5.007c0.802-1.219,1.954-2.274,3.461-3.168c1.081-0.645,2.566-1.143,4.457-1.496   s3.937-0.528,6.136-0.528c3.534,0,6.369,0.199,8.513,0.598c2.144,0.402,3.93,1.235,5.354,2.503   c1.006,0.884,1.798,2.128,2.376,3.737c0.577,1.609,0.867,3.146,0.867,4.607v13.734c0,1.463,0.093,2.609,0.277,3.44   c0.185,0.832,0.589,1.891,1.214,3.179h-11.475c-0.463-0.813-0.765-1.432-0.904-1.856c-0.142-0.426-0.28-1.094-0.418-2.006   c-1.53,1.487-3.052,2.55-4.566,3.188c-2.067,0.85-4.472,1.274-7.21,1.274c-3.637,0-6.398-0.839-8.285-2.521   c-1.889-1.682-2.832-3.754-2.832-6.217c0-2.313,0.678-4.214,2.034-5.7c1.355-1.492,3.862-2.603,7.519-3.328   c4.374-0.874,7.213-1.488,8.513-1.842c1.3-0.354,2.678-0.817,4.134-1.393c0-1.33-0.263-2.264-0.792-2.798   c-0.527-0.535-1.453-0.802-2.779-0.802c-1.701,0-2.975,0.308-3.825,0.919C353.041,129.394,352.507,130.288,352.1,131.6z" fill="#FFFFFF"/><path d="M392.216,136.578c0,2.786,0.513,4.855,1.537,6.202c1.025,1.346,2.323,2.019,3.891,2.019   c1.383,0,2.536-0.646,3.465-1.938c0.928-1.295,1.393-3.485,1.393-6.572c0-2.851-0.485-4.945-1.455-6.282   c-0.967-1.336-2.15-2.006-3.543-2.006c-1.513,0-2.772,0.673-3.778,2.021C392.718,131.367,392.216,133.554,392.216,136.578    M380.3,164v-43.201h11.128v4.107c1.544-1.719,2.961-2.88,4.247-3.486c1.736-0.813,3.659-1.219,5.766-1.219   c4.155,0,7.372,1.584,9.646,4.757c2.276,3.173,3.415,7.092,3.415,11.76c0,5.157-1.241,9.092-3.719,11.809   c-2.477,2.716-5.614,4.073-9.407,4.073c-1.831,0-3.502-0.272-5.016-0.819c-1.513-0.548-2.866-1.36-4.06-2.443V164H380.3z" fill="#FFFFFF"/><path d="M512,364.931C473.734,325.406,315,192,315,192l-148-11v219l130,112h215V364.931" fill="#010101" opacity="0.191"/><path d="M208.057,305.562v57.87h42.666c16.622,0,27.167-0.444,31.629-1.333c6.866-1.175,12.453-4.054,16.762-8.638   s6.465-10.716,6.465-18.393c0-6.475-1.661-11.977-4.987-16.515c-3.324-4.536-8.128-7.837-14.405-9.899   c-6.279-2.061-19.918-3.093-40.911-3.093H208.057 M208.057,217.235v51.777h30.06c17.884,0,28.998-0.252,33.337-0.76   c7.852-0.921,14.021-3.594,18.518-8.021c4.495-4.425,6.74-10.256,6.74-17.487c0-6.918-1.938-12.542-5.817-16.871   c-3.879-4.331-9.637-6.957-17.27-7.876c-4.556-0.509-17.624-0.763-39.203-0.763H208.057z M166.685,180.688h86.901   c17.176,0,29.997,0.729,38.463,2.189c8.464,1.459,16.029,4.504,22.692,9.136c6.667,4.634,12.222,10.812,16.669,18.537   c4.449,7.725,6.672,16.377,6.672,25.96c0,10.374-2.569,19.894-7.711,28.554c-5.141,8.661-12.112,15.164-20.916,19.513   c12.035,3.839,21.295,10.406,27.773,19.701c6.48,9.295,9.72,20.209,9.72,32.74c0,9.867-2.277,19.473-6.833,28.816   c-4.557,9.344-10.775,16.8-18.655,22.367c-7.88,5.568-17.591,9.002-29.136,10.303c-7.233,0.793-24.702,1.285-52.408,1.475h-73.232   V180.688z" fill="#FFFFFF"/></g></svg>